<svg width="20" height="20" viewBox="0 0 20 20" fill="none" xmlns="http://www.w3.org/2000/svg">
<path d="M5.32258 10.652H7.5149V19.6774C7.5149 19.8556 7.65929 20 7.83748 20H11.5546C11.7328 20 11.8772 19.8556 11.8772 19.6774V10.6945H14.3975C14.5614 10.6945 14.6992 10.5715 14.7179 10.4088L15.1007 7.08606C15.1112 6.99464 15.0823 6.9031 15.0211 6.83452C14.9599 6.76587 14.8723 6.72658 14.7803 6.72658H11.8774V4.64374C11.8774 4.01587 12.2154 3.69748 12.8823 3.69748C12.9773 3.69748 14.7803 3.69748 14.7803 3.69748C14.9585 3.69748 15.1029 3.55303 15.1029 3.3749V0.324968C15.1029 0.146774 14.9585 0.0023871 14.7803 0.0023871H12.1645C12.1461 0.00148387 12.1051 0 12.0447 0C11.5908 0 10.0132 0.0890967 8.76703 1.23555C7.38626 2.506 7.57819 4.02716 7.62406 4.2909V6.72652H5.32258C5.14439 6.72652 5 6.8709 5 7.0491V10.3294C5 10.5075 5.14439 10.652 5.32258 10.652Z" fill="#ffffff"/>
</svg>
