<svg width="20" height="20" viewBox="0 0 20 20" fill="none" xmlns="http://www.w3.org/2000/svg">
<g>
<path d="M0.833496 8.98146C0.833496 5.14038 0.833496 3.21985 2.02676 2.02658C3.22004 0.833313 5.14057 0.833313 8.98164 0.833313H11.0187C14.8597 0.833313 16.7803 0.833313 17.9735 2.02658C19.1668 3.21985 19.1668 5.14038 19.1668 8.98146V11.0185C19.1668 14.8595 19.1668 16.7802 17.9735 17.9734C16.7803 19.1666 14.8597 19.1666 11.0187 19.1666H8.98164C5.14057 19.1666 3.22004 19.1666 2.02676 17.9734C0.833496 16.7802 0.833496 14.8595 0.833496 11.0185V8.98146Z" stroke="#ffffff" stroke-width="2"/>
<path d="M15 6C15.5523 6 16 5.55228 16 5C16 4.44772 15.5523 4 15 4C14.4477 4 14 4.44772 14 5C14 5.55228 14.4477 6 15 6Z" fill="#ffffff"/>
<path d="M10 14C12.2091 14 14 12.2091 14 10C14 7.79086 12.2091 6 10 6C7.79086 6 6 7.79086 6 10C6 12.2091 7.79086 14 10 14Z" stroke="#ffffff" stroke-width="2"/>
</g>
</svg>
