<svg width="20" height="20" viewBox="0 0 20 20" fill="none" xmlns="http://www.w3.org/2000/svg">
<path d="M19.5467 3.88974C19.2325 4.02909 18.9095 4.1467 18.5794 4.24219C18.9702 3.80025 19.2681 3.28025 19.45 2.71122C19.4908 2.58368 19.4485 2.44406 19.3437 2.36064C19.239 2.27716 19.0935 2.26716 18.9782 2.33548C18.2772 2.75122 17.521 3.05 16.728 3.22471C15.9293 2.44419 14.8444 2 13.7228 2C11.3554 2 9.42934 3.92599 9.42934 6.29334C9.42934 6.47979 9.44114 6.66521 9.4645 6.84805C6.52677 6.59011 3.79561 5.14618 1.92014 2.84561C1.8533 2.76361 1.75033 2.71942 1.64491 2.72787C1.53943 2.73613 1.44465 2.79561 1.39136 2.88703C1.01098 3.53974 0.809882 4.28625 0.809882 5.0458C0.809882 6.08031 1.17924 7.06185 1.83169 7.82882C1.6333 7.76011 1.44078 7.67424 1.25704 7.57224C1.1584 7.51734 1.03801 7.51817 0.940011 7.57437C0.841946 7.63056 0.780463 7.73392 0.777882 7.84688C0.777431 7.86592 0.777431 7.88495 0.777431 7.90424C0.777431 9.44843 1.60852 10.8387 2.87917 11.5964C2.77 11.5855 2.66091 11.5697 2.55252 11.549C2.44078 11.5276 2.32588 11.5668 2.25052 11.652C2.17504 11.7372 2.15007 11.8559 2.18485 11.9643C2.65517 13.4327 3.86607 14.5127 5.32993 14.842C4.11581 15.6025 2.72736 16.0008 1.26982 16.0008C0.965688 16.0008 0.659818 15.9829 0.360464 15.9475C0.211755 15.9298 0.0695618 16.0176 0.0189168 16.159C-0.0317282 16.3005 0.0219491 16.4583 0.148465 16.5394C2.02091 17.7399 4.186 18.3745 6.40954 18.3745C10.7808 18.3745 13.5153 16.3132 15.0394 14.584C16.9401 12.4278 18.0301 9.57385 18.0301 6.75392C18.0301 6.63611 18.0283 6.51715 18.0247 6.39857C18.7746 5.8336 19.4202 5.14986 19.9456 4.36399C20.0254 4.24464 20.0167 4.0869 19.9243 3.97703C19.8319 3.86709 19.6781 3.83154 19.5467 3.88974Z" fill="#ffffff"/>
</svg>
