<svg width="76" height="16" viewBox="0 0 76 16" fill="none" xmlns="http://www.w3.org/2000/svg">
<path d="M75.7071 8.70711C76.0976 8.31658 76.0976 7.68342 75.7071 7.29289L69.3431 0.928932C68.9526 0.538408 68.3195 0.538408 67.9289 0.928932C67.5384 1.31946 67.5384 1.95262 67.9289 2.34315L73.5858 8L67.9289 13.6569C67.5384 14.0474 67.5384 14.6805 67.9289 15.0711C68.3195 15.4616 68.9526 15.4616 69.3431 15.0711L75.7071 8.70711ZM50 9H75V7H50V9Z" fill="white"/>
<path d="M25.7071 8.70711C26.0976 8.31658 26.0976 7.68342 25.7071 7.29289L19.3431 0.928932C18.9526 0.538408 18.3195 0.538408 17.9289 0.928932C17.5384 1.31946 17.5384 1.95262 17.9289 2.34315L23.5858 8L17.9289 13.6569C17.5384 14.0474 17.5384 14.6805 17.9289 15.0711C18.3195 15.4616 18.9526 15.4616 19.3431 15.0711L25.7071 8.70711ZM0 9H25V7H0L0 9Z" fill="white"/>
</svg>
