<svg width="220" height="49" viewBox="0 0 220 49" fill="none" xmlns="http://www.w3.org/2000/svg">
<path d="M0.0333862 40V9.21196H5.9271L24.0921 31.3793H21.2332V9.21196H28.2704V40H22.4207L4.21176 17.8326H7.07065V40H0.0333862ZM46.3306 40.3519C43.8089 40.3519 41.5658 39.8241 39.6012 38.7685C37.6659 37.7129 36.1265 36.2761 34.983 34.4582C33.8687 32.6109 33.3116 30.5144 33.3116 28.1686C33.3116 25.7935 33.8687 23.697 34.983 21.879C36.1265 20.0318 37.6659 18.595 39.6012 17.5687C41.5658 16.5131 43.8089 15.9853 46.3306 15.9853C48.8229 15.9853 51.0514 16.5131 53.016 17.5687C54.9805 18.595 56.5199 20.0171 57.6342 21.8351C58.7484 23.653 59.3055 25.7642 59.3055 28.1686C59.3055 30.5144 58.7484 32.6109 57.6342 34.4582C56.5199 36.2761 54.9805 37.7129 53.016 38.7685C51.0514 39.8241 48.8229 40.3519 46.3306 40.3519ZM46.3306 34.7221C47.4741 34.7221 48.5004 34.4582 49.4094 33.9304C50.3184 33.4026 51.0367 32.6549 51.5645 31.6872C52.0923 30.6903 52.3562 29.5174 52.3562 28.1686C52.3562 26.7905 52.0923 25.6176 51.5645 24.65C51.0367 23.6823 50.3184 22.9346 49.4094 22.4068C48.5004 21.879 47.4741 21.6151 46.3306 21.6151C45.187 21.6151 44.1607 21.879 43.2518 22.4068C42.3428 22.9346 41.6097 23.6823 41.0526 24.65C40.5248 25.6176 40.2609 26.7905 40.2609 28.1686C40.2609 29.5174 40.5248 30.6903 41.0526 31.6872C41.6097 32.6549 42.3428 33.4026 43.2518 33.9304C44.1607 34.4582 45.187 34.7221 46.3306 34.7221ZM73.568 40.3519C70.7824 40.3519 68.6126 39.6481 67.0585 38.2407C65.5045 36.8039 64.7275 34.6781 64.7275 31.8632V11.1032H71.5888V31.7752C71.5888 32.7721 71.8527 33.5492 72.3805 34.1063C72.9083 34.6341 73.6267 34.898 74.5356 34.898C75.6206 34.898 76.5442 34.6048 77.3066 34.0183L79.1538 38.8564C78.4501 39.3549 77.5998 39.7361 76.6028 40C75.6352 40.2346 74.6236 40.3519 73.568 40.3519ZM61.0769 22.1429V16.865H77.4825V22.1429H61.0769ZM102.499 21.6151H117.321V27.157H102.499V21.6151ZM103.027 34.2822H119.784V40H95.9454V9.21196H119.212V14.9297H103.027V34.2822ZM134.913 40.3519C132.684 40.3519 130.676 39.8534 128.887 38.8564C127.099 37.8595 125.676 36.452 124.621 34.6341C123.595 32.8161 123.081 30.661 123.081 28.1686C123.081 25.7056 123.595 23.5651 124.621 21.7471C125.676 19.9291 127.099 18.5217 128.887 17.5247C130.676 16.4985 132.684 15.9853 134.913 15.9853C136.995 15.9853 138.769 16.4252 140.235 17.3048C141.73 18.1845 142.874 19.5186 143.665 21.3073C144.457 23.0959 144.853 25.383 144.853 28.1686C144.853 30.9249 144.442 33.212 143.621 35.0299C142.8 36.8186 141.642 38.1527 140.147 39.0324C138.651 39.912 136.907 40.3519 134.913 40.3519ZM136.1 34.7221C137.215 34.7221 138.226 34.4582 139.135 33.9304C140.044 33.4026 140.763 32.6549 141.29 31.6872C141.847 30.6903 142.126 29.5174 142.126 28.1686C142.126 26.7905 141.847 25.6176 141.29 24.65C140.763 23.6823 140.044 22.9346 139.135 22.4068C138.226 21.879 137.215 21.6151 136.1 21.6151C134.957 21.6151 133.931 21.879 133.022 22.4068C132.113 22.9346 131.38 23.6823 130.822 24.65C130.295 25.6176 130.031 26.7905 130.031 28.1686C130.031 29.5174 130.295 30.6903 130.822 31.6872C131.38 32.6549 132.113 33.4026 133.022 33.9304C133.931 34.4582 134.957 34.7221 136.1 34.7221ZM141.994 48.5327V35.2059L142.434 28.2126L142.302 21.1753V16.3372H148.855V48.5327H141.994ZM165.192 40.3519C163.227 40.3519 161.468 39.9707 159.914 39.2083C158.389 38.4459 157.202 37.2877 156.351 35.7337C155.501 34.1503 155.076 32.1417 155.076 29.708V16.3372H161.937V28.6964C161.937 30.661 162.348 32.1124 163.169 33.0507C164.019 33.9597 165.207 34.4142 166.731 34.4142C167.787 34.4142 168.725 34.1943 169.546 33.7544C170.367 33.2853 171.012 32.5815 171.482 31.6432C171.951 30.6756 172.185 29.4734 172.185 28.0366V16.3372H179.047V40H172.537V33.4905L173.725 35.3818C172.933 37.0238 171.76 38.27 170.206 39.1203C168.681 39.9414 167.01 40.3519 165.192 40.3519ZM199.918 40V35.3818L199.478 34.3702V26.1014C199.478 24.6353 199.023 23.4917 198.114 22.6707C197.235 21.8497 195.871 21.4392 194.024 21.4392C192.763 21.4392 191.517 21.6445 190.285 22.055C189.083 22.4362 188.057 22.964 187.206 23.6384L184.743 18.8442C186.034 17.9352 187.588 17.2315 189.406 16.733C191.224 16.2346 193.071 15.9853 194.947 15.9853C198.554 15.9853 201.354 16.8357 203.348 18.5363C205.342 20.237 206.339 22.8906 206.339 26.4972V40H199.918ZM192.704 40.3519C190.857 40.3519 189.274 40.044 187.954 39.4282C186.635 38.7831 185.623 37.9181 184.919 36.8332C184.216 35.7483 183.864 34.5315 183.864 33.1826C183.864 31.7752 184.201 30.5437 184.875 29.4881C185.579 28.4325 186.679 27.6115 188.174 27.025C189.67 26.4093 191.619 26.1014 194.024 26.1014H200.313V30.1038H194.772C193.159 30.1038 192.045 30.3677 191.429 30.8955C190.842 31.4233 190.549 32.0831 190.549 32.8748C190.549 33.7544 190.886 34.4582 191.561 34.9859C192.264 35.4844 193.217 35.7337 194.42 35.7337C195.563 35.7337 196.589 35.4698 197.498 34.942C198.407 34.3848 199.067 33.5785 199.478 32.5229L200.533 35.6897C200.035 37.2144 199.126 38.3726 197.806 39.1643C196.487 39.956 194.786 40.3519 192.704 40.3519ZM212.549 40V7.36468H219.41V40H212.549Z" fill="white"/>
</svg>
